<?xml version="1.0" encoding="UTF-8" ?>
<!DOCTYPE svg PUBLIC "-//W3C//DTD SVG 1.1//EN" "http://www.w3.org/Graphics/SVG/1.1/DTD/svg11.dtd">
<svg width="875pt" height="734pt" viewBox="0 0 875 734" version="1.1" xmlns="http://www.w3.org/2000/svg">
<g id="#010101ff">
<path fill="#010101" opacity="1.00" d=" M 49.24 69.06 C 68.65 39.74 102.80 20.94 137.95 20.04 C 161.30 19.92 184.66 20.03 208.01 20.02 C 291.68 20.25 375.35 19.78 459.02 20.11 C 532.36 19.95 605.69 20.16 679.03 20.02 C 690.41 20.05 701.87 19.57 713.15 21.41 C 747.18 26.22 778.36 48.04 794.38 78.45 C 803.28 94.82 808.09 113.40 808.12 132.04 C 808.21 159.99 808.09 187.93 808.28 215.88 C 818.68 216.36 829.51 214.77 839.46 218.67 C 854.74 224.11 865.04 239.95 865.07 255.99 C 865.19 309.34 865.05 362.69 865.14 416.04 C 865.07 422.38 865.60 428.92 863.35 434.98 C 859.95 447.62 849.36 457.70 836.96 461.49 C 827.74 464.29 817.95 463.61 808.45 463.23 C 808.45 385.50 808.47 307.76 808.41 230.02 C 808.41 225.42 808.26 220.81 808.63 216.23 C 763.77 216.65 718.90 216.31 674.04 216.42 C 654.35 216.54 634.67 215.93 614.98 216.27 C 603.72 216.41 591.63 214.73 581.34 220.41 C 567.84 227.10 559.09 241.99 559.40 257.01 C 559.45 312.99 559.45 368.97 559.42 424.95 C 559.58 434.79 563.59 444.50 570.53 451.50 C 578.07 459.50 589.13 463.26 599.96 463.35 C 616.14 463.28 632.32 463.29 648.51 463.35 C 695.37 463.23 742.23 463.39 789.09 463.34 C 795.54 463.46 802.01 463.01 808.46 463.57 C 807.85 482.71 808.32 501.88 808.14 521.04 C 807.97 537.43 809.30 554.17 804.85 570.16 C 797.21 602.78 773.70 631.17 743.16 644.89 C 726.64 652.68 708.13 655.38 689.99 655.02 C 512.33 654.99 334.66 655.06 157.00 655.00 C 147.64 654.86 138.24 655.46 128.92 654.32 C 102.86 652.18 77.99 639.82 59.97 620.97 C 40.37 600.50 29.24 572.30 29.37 543.98 C 29.16 472.63 29.53 401.28 29.36 329.93 C 29.44 265.63 29.33 201.32 29.47 137.01 C 29.29 113.12 35.51 88.80 49.24 69.06 M 148.11 103.15 C 145.75 104.08 143.42 105.09 141.13 106.19 C 130.13 112.02 121.10 121.67 116.17 133.11 C 114.81 136.28 113.80 139.57 112.82 142.87 C 110.81 150.42 111.24 158.26 111.17 165.99 C 111.18 283.64 111.11 401.29 111.22 518.94 C 111.09 523.74 111.71 528.49 112.80 533.15 C 113.41 535.16 114.12 537.14 114.72 539.16 C 116.60 543.83 119.01 548.26 121.72 552.51 C 123.08 554.06 124.45 555.61 125.80 557.17 C 126.47 557.84 127.14 558.51 127.81 559.20 C 131.93 563.31 136.87 566.41 141.90 569.27 C 145.46 570.80 149.04 572.32 152.81 573.32 C 156.49 574.29 160.32 574.41 164.04 575.19 C 178.35 575.60 192.68 575.24 207.00 575.38 C 361.66 575.35 516.32 575.42 670.98 575.34 C 678.09 574.80 685.34 573.84 691.88 570.79 C 705.43 565.51 716.41 554.34 721.93 540.93 C 724.25 535.57 725.25 529.81 726.19 524.09 C 726.57 510.24 726.31 496.38 726.38 482.52 C 716.72 482.65 707.05 482.64 697.39 482.60 C 697.22 494.74 697.35 506.89 697.28 519.03 C 697.22 522.49 696.25 525.84 695.26 529.13 C 693.16 534.31 689.40 538.62 684.83 541.78 C 683.94 542.28 683.06 542.80 682.19 543.32 C 675.00 546.93 666.81 546.58 659.01 546.44 C 546.02 546.38 433.04 546.44 320.05 546.40 C 268.00 546.30 215.94 546.69 163.90 546.23 C 162.61 545.73 161.26 545.43 159.91 545.19 C 152.21 543.07 146.11 537.22 142.63 530.17 C 141.97 528.16 141.34 526.13 140.74 524.11 C 140.28 519.78 140.44 515.42 140.41 511.07 C 140.45 396.40 140.42 281.72 140.44 167.05 C 140.47 161.99 140.33 156.92 140.75 151.88 C 141.22 150.28 141.64 148.67 142.06 147.06 C 145.34 137.48 154.08 130.42 164.04 128.88 C 165.68 128.74 167.33 128.62 168.99 128.60 C 296.32 128.58 423.66 128.65 550.99 128.57 C 591.99 128.76 633.00 128.33 673.98 128.81 C 675.61 129.32 677.28 129.71 678.97 130.03 C 683.78 132.04 688.56 134.76 691.58 139.16 C 696.27 145.36 697.54 153.39 697.34 160.99 C 697.15 171.05 697.48 181.12 697.16 191.18 L 696.38 192.01 C 697.99 192.95 697.02 195.09 697.30 196.60 C 706.99 196.62 716.69 196.72 726.38 196.57 C 726.24 181.69 726.68 166.80 726.18 151.93 C 725.24 144.09 723.54 136.22 719.77 129.20 C 715.31 121.36 709.39 114.18 701.82 109.19 C 699.56 107.72 697.22 106.40 694.85 105.15 C 687.07 101.69 678.60 99.79 670.08 99.65 C 503.06 99.59 336.04 99.63 169.02 99.64 C 161.93 99.83 154.84 100.90 148.11 103.15 M 236.85 216.69 C 231.55 218.50 226.64 223.05 226.42 228.94 C 226.07 230.59 226.80 232.68 225.49 233.99 C 226.99 235.95 226.13 238.74 225.86 241.00 C 227.21 246.30 224.94 251.71 226.12 257.00 C 225.52 265.06 224.48 274.87 230.95 280.98 C 248.09 298.22 265.29 315.38 282.39 332.66 C 286.84 337.71 292.51 343.48 299.93 341.98 C 305.18 341.74 308.72 337.61 312.19 334.20 C 324.13 322.11 336.14 310.09 348.05 297.98 C 352.55 293.59 353.94 286.83 352.00 280.91 C 350.43 276.84 347.01 274.01 344.03 271.00 C 328.54 255.15 312.60 239.76 297.20 223.83 C 294.99 221.63 292.77 219.42 290.20 217.65 C 285.03 215.59 279.35 216.61 273.93 216.34 C 261.58 216.60 249.19 215.97 236.85 216.69 M 452.24 230.27 C 446.29 235.65 440.71 241.44 435.10 247.17 C 389.26 292.96 343.60 338.92 297.85 384.79 C 295.15 387.15 292.76 389.82 290.72 392.77 C 289.46 396.09 289.21 399.64 289.65 403.16 C 290.33 404.58 291.00 406.01 291.65 407.46 C 293.61 409.90 296.05 411.92 299.07 412.89 C 301.66 413.90 304.47 413.44 307.18 413.38 C 308.37 412.83 309.58 412.33 310.80 411.83 C 314.90 408.96 318.21 405.19 321.80 401.75 C 333.96 389.17 346.63 377.09 358.86 364.57 C 359.26 364.50 360.05 364.38 360.45 364.32 C 367.34 371.86 375.05 378.64 381.67 386.45 L 382.53 386.45 L 382.53 387.24 C 382.83 387.55 383.44 388.17 383.74 388.48 L 384.27 388.58 C 385.98 390.25 387.66 391.96 389.30 393.71 C 392.84 397.00 395.59 401.13 399.57 403.94 C 399.90 405.79 398.16 406.76 397.12 407.97 C 395.12 409.88 393.90 412.39 392.63 414.80 C 392.44 417.24 392.38 419.69 392.62 422.13 C 393.60 426.12 396.58 429.11 399.85 431.39 C 402.39 432.53 405.19 432.93 407.96 432.78 C 412.97 432.96 416.62 428.89 419.75 425.53 C 420.18 425.51 421.04 425.49 421.47 425.47 C 423.60 428.00 426.04 430.26 428.26 432.72 C 429.66 434.05 430.96 435.50 432.49 436.72 L 432.60 437.24 C 438.88 442.34 443.42 449.34 450.19 453.87 C 457.67 457.68 467.38 454.02 470.37 446.17 C 470.73 443.14 471.09 440.05 470.50 437.03 C 469.58 433.83 467.43 431.18 465.08 428.91 C 457.28 421.36 449.79 413.50 442.02 405.92 C 440.98 405.22 441.43 403.92 441.42 402.92 C 446.93 399.18 449.88 392.43 448.38 385.86 C 446.76 380.34 441.60 376.83 436.17 375.72 C 435.37 375.73 433.77 375.76 432.97 375.77 C 427.79 376.58 423.94 380.51 421.01 384.58 C 407.48 371.09 393.73 357.77 380.56 343.91 C 380.56 343.59 380.57 342.95 380.58 342.63 C 383.17 340.21 385.92 337.94 388.27 335.28 C 394.93 327.94 402.44 321.45 409.16 314.16 C 429.94 293.28 450.79 272.46 471.50 251.50 C 473.11 250.00 474.07 248.01 475.02 246.06 C 477.01 240.02 475.11 232.87 469.87 229.11 C 466.92 227.22 463.36 226.59 459.90 226.71 C 457.25 227.64 454.27 228.17 452.24 230.27 M 405.00 601.05 C 398.80 603.74 395.01 610.37 395.70 617.08 C 396.47 620.05 397.75 622.85 399.72 625.23 C 401.07 626.24 402.40 627.27 403.78 628.26 C 404.87 628.45 405.91 628.81 406.90 629.34 C 418.31 629.61 429.75 629.88 441.16 629.33 C 444.77 627.84 448.36 625.65 450.17 622.04 C 453.34 615.67 451.97 606.64 445.57 602.77 C 440.40 599.18 433.85 600.68 427.98 600.42 C 420.33 600.71 412.57 599.73 405.00 601.05 Z" />
<path fill="#010101" opacity="1.00" d=" M 254.62 245.46 C 254.86 245.28 255.35 244.92 255.59 244.74 C 262.76 244.66 269.94 244.71 277.11 244.81 C 282.98 250.28 288.21 256.45 294.16 261.85 C 302.16 270.37 310.85 278.24 318.65 286.96 C 315.25 289.41 312.68 292.79 309.56 295.56 C 305.74 299.67 301.33 303.24 297.91 307.71 C 294.47 303.64 290.70 299.85 286.85 296.18 C 286.18 295.49 285.52 294.81 284.86 294.13 C 282.21 291.46 279.61 288.71 276.87 286.13 C 269.53 278.52 261.89 271.21 254.61 263.54 C 254.63 257.51 254.52 251.48 254.62 245.46 Z" />
<path fill="#010101" opacity="1.00" d=" M 286.44 695.70 C 290.48 694.36 294.80 694.90 298.98 694.82 C 381.31 694.92 463.63 694.89 545.95 694.88 C 551.06 694.77 556.38 697.30 559.06 701.73 C 563.17 708.70 560.71 718.54 553.58 722.47 C 548.15 725.11 541.91 723.97 536.10 724.19 C 454.73 724.17 373.37 724.15 292.01 724.19 C 285.52 724.46 279.12 719.93 277.61 713.54 C 275.23 706.49 279.34 698.02 286.44 695.70 Z" />
</g>
<g id="#e3e3e3ff">
</g>
<g id="#6acdccff">
<path fill="#6acdcc" opacity="1.00" d=" M 581.34 220.41 C 591.63 214.73 603.72 216.41 614.98 216.27 C 634.67 215.93 654.35 216.54 674.04 216.42 C 718.90 216.31 763.77 216.65 808.63 216.23 C 808.26 220.81 808.41 225.42 808.41 230.02 C 808.47 307.76 808.45 385.50 808.45 463.23 L 808.46 463.57 C 802.01 463.01 795.54 463.46 789.09 463.34 C 742.23 463.39 695.37 463.23 648.51 463.35 C 645.18 461.01 641.00 460.93 637.35 459.44 C 628.67 455.04 621.04 447.85 617.69 438.56 C 613.73 429.93 614.72 420.25 614.65 411.04 C 614.60 360.71 614.70 310.37 614.58 260.03 C 614.11 248.07 618.09 235.34 627.45 227.44 C 632.71 221.52 640.29 218.34 648.02 217.24 C 643.07 215.85 638.01 217.31 632.99 216.95 C 620.33 216.40 607.67 216.88 595.01 216.87 C 590.33 217.48 585.84 219.06 581.34 220.41 Z" />
</g>
</svg>
