<?xml version="1.0" encoding="UTF-8" ?>
<!DOCTYPE svg PUBLIC "-//W3C//DTD SVG 1.1//EN" "http://www.w3.org/Graphics/SVG/1.1/DTD/svg11.dtd">
<svg width="875pt" height="734pt" viewBox="0 0 875 734" version="1.1" xmlns="http://www.w3.org/2000/svg">
<g id="#6acdccff">
<path fill="#6acdcc" opacity="1.00" d=" M 122.38 21.56 C 124.45 21.43 126.53 21.33 128.61 21.38 L 128.63 20.66 C 134.05 20.29 139.50 20.22 144.94 20.26 C 311.26 20.29 477.58 20.28 643.91 20.27 C 665.12 20.48 686.35 19.89 707.56 20.57 L 707.04 21.59 C 709.91 21.16 712.95 21.09 715.70 22.20 C 717.29 22.36 718.90 22.47 720.52 22.54 L 720.30 23.41 C 723.21 23.30 726.23 23.78 728.78 25.26 C 737.68 27.30 746.03 31.56 753.83 36.24 C 757.12 37.70 759.97 40.03 762.77 42.27 C 764.21 43.11 765.62 44.03 766.82 45.22 C 772.18 49.79 777.59 54.54 781.69 60.31 C 783.51 61.53 784.66 63.39 785.77 65.23 C 788.12 67.95 790.20 70.97 791.77 74.21 C 798.70 85.61 803.67 98.33 805.89 111.52 C 806.66 113.67 806.69 115.98 806.74 118.24 C 807.53 120.42 807.70 122.75 807.70 125.06 C 807.41 155.21 807.82 185.36 807.48 215.51 C 815.31 217.26 823.50 215.65 831.47 216.48 C 831.44 216.76 831.39 217.31 831.36 217.58 C 836.73 216.65 841.70 219.72 846.29 222.09 C 850.22 224.89 854.36 227.91 856.77 232.20 C 861.56 237.59 863.76 244.92 864.67 251.94 C 864.71 306.61 864.65 361.28 864.68 415.95 C 864.65 421.12 864.83 426.30 864.51 431.48 L 863.63 431.40 C 863.65 432.91 863.52 434.44 862.83 435.82 C 861.90 438.97 860.85 442.14 858.80 444.76 C 858.01 446.25 857.13 447.76 855.74 448.78 C 855.03 450.18 853.95 451.45 852.28 451.62 L 852.73 452.73 L 851.43 452.26 L 851.61 453.68 L 850.29 453.47 L 850.55 454.25 C 849.30 455.12 848.06 455.99 846.77 456.79 C 843.01 459.28 838.81 461.15 834.35 461.94 C 832.49 462.76 830.41 462.68 828.44 462.60 C 828.31 462.99 828.05 463.77 827.92 464.16 C 827.82 463.68 827.62 462.73 827.52 462.25 C 821.35 463.67 814.53 464.47 808.46 462.28 C 808.49 462.83 808.56 463.93 808.59 464.48 L 807.46 464.34 C 807.81 491.57 807.46 518.80 807.64 546.02 C 807.98 553.64 806.98 561.34 804.85 568.64 C 804.45 572.47 803.10 576.08 801.87 579.69 C 801.57 580.75 801.22 581.80 800.82 582.84 C 798.83 587.96 796.88 593.23 793.68 597.75 C 791.22 603.21 787.74 608.31 783.72 612.75 C 782.34 615.05 780.52 617.08 778.42 618.75 L 778.65 619.38 L 777.53 619.52 L 777.52 620.68 L 776.72 620.44 C 776.16 622.00 775.13 623.30 773.41 623.56 L 773.52 624.19 C 770.66 626.06 768.81 629.12 765.77 630.74 C 764.63 631.97 763.31 633.04 761.77 633.69 C 758.63 636.69 754.66 638.81 750.81 640.74 C 748.46 642.65 745.59 643.75 742.76 644.73 C 737.54 647.73 731.62 649.20 725.92 650.96 C 724.28 651.61 722.49 651.66 720.76 651.60 C 719.79 652.83 718.10 652.56 716.75 652.78 C 713.88 654.10 710.65 653.34 707.66 653.99 C 704.83 654.63 701.92 654.73 699.04 654.71 C 513.04 654.73 327.04 654.70 141.04 654.73 C 132.43 654.98 123.91 653.59 115.43 652.35 L 115.67 651.58 C 108.85 651.32 102.28 648.60 96.16 645.76 C 92.05 644.26 87.90 642.49 84.44 639.76 C 82.60 639.00 80.92 637.93 79.29 636.82 C 78.23 636.15 77.19 635.48 76.16 634.80 C 74.76 633.88 73.36 632.96 72.19 631.77 C 70.11 630.20 68.02 628.63 66.32 626.65 L 65.46 626.50 L 65.43 625.36 L 64.39 625.61 L 64.61 624.67 C 61.53 623.27 59.32 620.34 57.25 617.72 C 55.79 616.17 54.21 614.70 53.28 612.76 C 51.19 610.77 49.61 608.33 48.25 605.81 C 47.40 604.91 46.71 603.90 46.20 602.78 C 44.75 600.53 43.25 598.30 42.27 595.79 C 38.39 588.18 34.60 580.23 33.16 571.75 C 32.18 568.47 31.37 565.11 31.22 561.68 C 29.66 555.28 29.40 548.60 29.44 542.02 C 29.36 459.67 29.55 377.31 29.43 294.95 C 29.58 240.62 29.35 186.29 29.55 131.96 C 29.53 130.12 28.90 128.07 30.28 126.51 C 30.20 121.33 30.95 116.13 32.22 111.14 C 32.29 109.61 32.52 108.09 33.07 106.66 C 33.53 104.18 34.08 101.69 35.18 99.40 C 36.49 93.01 39.34 86.98 42.26 81.17 C 45.74 74.04 50.09 67.22 55.25 61.20 C 58.92 56.27 63.54 52.16 67.90 47.87 C 68.67 47.15 69.56 46.62 70.56 46.28 L 70.49 45.78 C 72.11 44.67 73.35 43.01 75.27 42.36 C 79.88 38.12 85.61 35.08 91.19 32.24 C 91.70 31.98 92.70 31.46 93.20 31.20 C 100.57 27.34 108.55 24.83 116.65 23.04 C 118.56 22.23 120.65 22.30 122.67 22.54 L 122.38 21.56 M 130.24 21.43 L 130.74 22.61 C 127.94 22.65 124.72 21.62 122.25 23.42 C 120.57 23.48 118.89 23.46 117.22 23.36 L 117.79 24.62 C 116.25 24.49 114.71 24.38 113.18 24.31 L 113.80 25.61 C 112.29 25.50 110.78 25.41 109.27 25.33 L 109.78 26.64 C 108.89 26.55 107.11 26.36 106.22 26.26 L 106.79 27.64 C 105.91 27.55 104.15 27.38 103.27 27.30 L 103.79 28.60 C 102.92 28.56 101.17 28.48 100.30 28.44 L 100.61 31.02 C 100.14 30.57 99.18 29.66 98.70 29.21 L 98.38 30.08 C 97.29 31.03 95.65 30.66 94.52 31.62 C 93.27 32.47 91.90 33.12 90.48 33.60 C 89.17 34.44 87.90 35.55 86.23 35.39 L 86.69 36.79 C 86.12 36.64 84.97 36.36 84.39 36.22 L 84.75 37.54 C 83.55 37.79 82.37 38.11 81.21 38.50 L 81.79 39.47 C 81.17 39.73 79.95 40.24 79.33 40.49 L 78.30 40.08 L 78.78 41.47 C 76.88 41.13 76.10 41.89 76.44 43.76 C 75.92 43.60 74.87 43.28 74.35 43.13 L 74.76 44.44 C 72.89 44.50 71.28 45.76 71.41 47.76 C 70.89 47.61 69.85 47.31 69.33 47.16 L 69.87 48.77 L 68.29 48.10 L 68.70 49.49 C 67.49 49.45 66.62 49.98 66.09 51.05 C 63.83 53.57 60.33 55.38 59.35 58.77 L 58.09 58.22 L 58.86 59.86 L 57.02 59.19 L 57.91 60.69 L 56.21 60.39 C 56.35 60.90 56.62 61.93 56.75 62.44 C 54.91 62.13 54.16 62.91 54.50 64.77 L 53.04 64.19 L 53.92 65.71 L 52.65 65.29 C 52.08 66.39 51.70 67.56 51.52 68.79 L 50.53 68.23 C 50.06 69.37 49.75 70.56 49.59 71.78 L 48.59 71.23 C 48.09 72.37 47.76 73.55 47.58 74.77 L 46.64 74.29 C 46.27 75.83 45.48 77.19 44.65 78.52 C 43.76 80.57 42.74 82.56 41.62 84.50 C 40.76 85.72 40.56 87.22 40.44 88.67 L 39.48 88.37 C 39.25 90.16 38.68 91.89 38.38 93.67 L 37.31 93.40 C 37.39 94.24 37.55 95.93 37.63 96.77 L 36.52 96.21 C 36.74 99.81 34.42 102.77 34.26 106.31 C 33.14 108.30 33.37 110.62 33.55 112.80 L 32.36 112.21 C 32.44 114.39 32.46 116.58 32.60 118.77 L 31.38 118.21 C 31.39 122.39 31.89 126.83 30.53 130.83 C 30.48 271.79 30.42 412.76 30.54 553.73 L 31.59 553.26 C 31.44 556.09 30.95 559.09 32.30 561.74 C 32.34 563.75 32.40 565.83 33.23 567.72 C 33.48 569.10 33.33 570.69 34.41 571.80 C 34.50 573.05 34.51 574.31 34.46 575.58 L 35.63 575.36 C 35.56 576.19 35.41 577.83 35.33 578.65 L 36.60 578.24 C 36.55 579.10 36.46 580.84 36.41 581.70 L 38.93 581.29 C 38.39 581.83 37.30 582.92 36.75 583.46 L 38.61 583.43 C 38.54 584.23 38.41 585.83 38.35 586.64 L 39.90 586.40 C 39.67 586.95 39.22 588.06 38.99 588.61 L 40.43 588.28 C 40.26 590.65 41.79 592.46 42.69 594.51 C 43.47 595.82 44.31 597.12 44.52 598.68 L 45.71 598.40 C 45.59 598.96 45.35 600.09 45.24 600.65 L 46.48 600.21 C 46.82 601.38 47.14 602.57 47.44 603.76 L 48.37 603.27 C 48.63 603.89 49.17 605.14 49.44 605.77 L 49.11 606.71 L 50.69 606.30 C 50.60 606.83 50.41 607.91 50.31 608.44 L 51.65 608.26 L 51.18 609.63 L 52.44 609.41 C 52.27 611.08 53.05 611.83 54.77 611.63 C 54.60 612.14 54.25 613.15 54.08 613.66 L 55.32 613.24 C 55.63 615.54 58.19 616.44 58.71 618.66 L 59.60 618.17 L 59.39 619.62 L 60.81 619.39 L 60.32 620.72 L 61.88 620.26 L 61.19 621.83 L 62.76 621.15 L 62.24 622.76 L 63.77 622.30 L 63.40 623.84 C 63.87 623.70 64.82 623.42 65.30 623.28 C 66.03 625.78 68.18 627.88 70.67 628.63 L 70.24 629.95 L 71.79 629.17 L 71.39 630.82 C 71.89 630.68 72.90 630.39 73.40 630.24 C 73.15 632.08 73.93 632.83 75.76 632.49 L 75.37 633.89 C 75.86 633.73 76.85 633.41 77.34 633.25 C 77.24 635.72 79.85 636.14 81.72 636.43 L 81.37 637.74 C 81.95 637.62 83.11 637.39 83.69 637.27 L 83.24 638.58 C 84.41 638.90 85.59 639.21 86.77 639.51 L 86.42 640.92 C 86.97 640.72 88.06 640.31 88.61 640.10 L 88.37 641.78 C 88.95 641.65 90.11 641.40 90.69 641.28 L 90.37 642.89 C 90.94 642.72 92.07 642.38 92.64 642.21 L 92.54 644.34 C 93.03 643.68 94.01 642.34 94.50 641.67 L 94.37 644.44 C 96.18 644.70 97.91 645.36 99.73 645.61 L 99.41 646.97 C 99.97 646.74 101.08 646.28 101.63 646.05 L 101.33 647.61 C 102.17 647.55 103.86 647.41 104.71 647.34 L 104.33 648.70 C 105.18 648.60 106.89 648.41 107.74 648.32 L 107.26 649.64 C 108.76 649.56 110.27 649.48 111.78 649.41 L 111.26 650.63 C 113.10 650.57 114.93 650.50 116.77 650.43 L 116.20 651.73 C 117.72 651.60 119.23 651.48 120.75 651.36 L 120.29 652.56 C 122.63 652.48 124.96 652.51 127.29 652.67 C 128.64 653.27 130.09 653.60 131.57 653.56 C 323.65 653.62 515.73 653.51 707.81 653.62 L 707.19 652.46 C 710.35 652.43 713.72 653.17 716.71 651.79 C 718.07 651.57 719.47 651.39 720.70 650.73 C 722.39 650.45 724.32 650.80 725.82 649.74 C 727.78 649.35 729.71 648.73 731.72 648.55 L 731.25 647.55 C 733.47 647.71 735.53 646.78 737.68 646.41 L 737.35 644.23 C 737.89 644.72 738.98 645.70 739.52 646.20 L 739.34 644.62 C 741.09 644.28 742.81 643.79 744.58 643.49 L 744.35 642.27 C 744.80 642.38 745.71 642.60 746.16 642.71 C 746.76 642.41 747.97 641.81 748.57 641.51 L 748.38 640.46 C 750.46 640.64 751.61 638.21 753.75 638.64 L 753.27 637.23 C 753.86 637.36 755.04 637.63 755.63 637.77 L 755.33 636.05 L 756.31 636.51 C 756.90 636.20 758.08 635.59 758.67 635.28 L 758.34 632.92 L 760.13 635.08 C 760.25 634.36 760.49 632.91 760.61 632.19 C 761.11 632.37 762.12 632.73 762.62 632.91 L 762.25 631.53 C 764.08 631.84 764.86 631.07 764.59 629.24 C 765.12 629.40 766.17 629.71 766.70 629.87 L 766.15 628.08 L 767.75 629.03 L 767.22 627.64 C 770.15 627.20 771.37 624.13 773.52 622.45 L 774.68 622.69 L 774.30 621.20 L 775.31 621.71 C 776.23 618.12 780.95 616.86 781.52 613.23 L 782.85 613.66 C 782.70 613.15 782.40 612.14 782.24 611.63 C 784.10 611.57 785.79 610.20 785.37 608.19 L 786.41 608.81 C 786.88 607.62 787.24 606.41 787.49 605.17 L 788.57 605.81 C 788.89 604.66 789.19 603.52 789.49 602.37 L 790.45 602.57 C 790.66 601.98 791.08 600.82 791.29 600.24 C 792.06 598.61 793.52 597.19 793.46 595.27 L 794.84 595.60 C 794.68 595.03 794.37 593.90 794.22 593.33 L 795.92 593.55 C 795.70 593.01 795.27 591.92 795.06 591.38 L 796.72 591.68 C 796.59 591.12 796.32 589.99 796.19 589.43 L 797.33 589.51 C 797.79 587.80 798.32 586.10 798.60 584.36 L 799.55 584.64 C 799.51 581.32 802.08 578.63 801.54 575.22 L 802.75 575.77 C 802.65 574.90 802.44 573.14 802.34 572.27 L 803.57 572.68 C 803.56 571.36 803.57 570.05 803.62 568.74 C 804.37 567.52 804.55 566.09 804.78 564.72 C 805.92 562.36 805.15 559.58 806.36 557.26 C 806.90 526.01 806.39 494.74 806.62 463.48 C 789.76 463.77 772.89 463.52 756.03 463.62 C 703.00 463.54 649.96 463.66 596.93 463.62 C 594.33 463.88 591.09 462.43 589.12 464.79 L 589.72 462.41 C 588.86 462.48 587.13 462.62 586.26 462.69 L 586.60 461.50 C 585.12 461.51 583.66 461.54 582.20 461.58 L 582.64 459.83 C 582.07 460.12 580.93 460.69 580.37 460.98 L 580.69 459.20 L 579.24 459.76 L 579.61 458.30 C 579.05 458.43 577.92 458.69 577.35 458.83 L 577.57 457.23 C 577.01 457.36 575.88 457.63 575.32 457.77 L 575.61 456.17 C 575.04 456.31 573.90 456.61 573.34 456.75 C 573.41 456.16 573.56 454.97 573.64 454.38 C 573.10 454.46 572.02 454.64 571.48 454.73 C 571.41 454.00 571.27 452.54 571.20 451.82 C 573.19 452.74 574.65 454.47 576.46 455.69 C 584.04 461.29 593.80 462.95 603.04 462.66 C 618.07 462.35 633.12 463.04 648.15 462.45 C 645.03 461.33 641.73 460.91 638.59 459.91 C 631.44 456.81 625.33 451.54 620.89 445.17 C 617.42 438.99 614.82 432.12 614.67 424.96 C 614.60 368.66 614.68 312.36 614.59 256.06 C 615.02 245.14 619.37 234.01 627.96 226.97 C 633.10 221.22 640.62 218.36 648.10 217.28 C 644.42 216.92 640.72 216.77 637.03 216.97 C 623.03 217.14 609.03 216.85 595.04 217.16 C 590.27 217.19 586.00 219.59 581.43 220.43 L 581.09 219.28 L 582.74 219.73 L 582.26 218.29 C 583.09 218.38 584.76 218.54 585.59 218.62 L 585.28 217.34 C 586.12 217.40 587.79 217.53 588.63 217.60 L 588.26 216.39 C 591.08 216.50 593.99 216.66 596.69 215.61 C 612.47 215.42 628.26 215.57 644.05 215.51 C 698.26 215.68 752.48 215.36 806.69 215.67 C 806.46 183.53 806.61 151.38 806.60 119.24 L 805.44 119.75 C 805.56 117.42 805.67 115.08 805.39 112.77 C 804.40 109.68 803.82 106.47 803.44 103.26 L 802.42 103.76 C 802.45 102.30 802.51 100.84 802.59 99.38 L 801.35 99.67 C 801.43 98.84 801.60 97.19 801.68 96.37 L 800.16 96.62 C 800.36 96.05 800.76 94.91 800.96 94.34 L 799.37 94.74 C 799.46 93.87 799.64 92.14 799.73 91.27 L 798.41 91.77 C 798.45 90.92 798.54 89.22 798.58 88.38 L 797.20 88.63 C 797.33 88.04 797.59 86.86 797.72 86.27 L 796.07 86.62 C 796.28 86.09 796.72 85.02 796.94 84.48 L 795.60 84.69 C 795.38 83.18 794.95 81.72 794.56 80.25 L 793.26 80.69 C 793.38 80.09 793.62 78.90 793.74 78.31 L 791.09 78.68 C 791.63 78.15 792.73 77.10 793.28 76.57 L 791.68 76.73 C 791.46 76.13 791.00 74.91 790.77 74.30 C 790.11 73.38 789.65 72.36 789.39 71.25 L 788.10 71.71 L 788.50 70.64 C 788.20 70.10 787.62 69.03 787.32 68.49 C 785.49 68.98 787.02 65.22 784.24 66.41 C 784.39 65.89 784.69 64.87 784.85 64.35 L 783.49 64.75 C 783.52 62.90 782.17 61.30 780.26 61.36 C 780.40 60.86 780.68 59.86 780.82 59.36 L 779.24 59.79 L 779.84 58.23 L 778.12 58.76 L 778.94 57.20 L 777.63 57.78 C 777.05 55.21 774.80 53.57 772.72 52.23 C 772.42 50.97 771.59 50.33 770.24 50.34 L 770.76 49.00 L 769.15 49.80 L 769.69 48.10 C 769.10 48.27 767.93 48.60 767.35 48.77 C 767.42 48.17 767.58 46.96 767.65 46.36 C 767.14 46.44 766.13 46.62 765.62 46.70 C 765.71 44.98 764.93 44.25 763.26 44.51 L 763.63 43.19 C 763.13 43.32 762.13 43.59 761.63 43.72 C 761.76 42.02 760.99 41.29 759.31 41.53 L 759.58 40.25 C 759.01 40.37 757.86 40.62 757.28 40.75 L 757.76 39.04 L 756.25 39.91 L 756.62 38.24 C 756.04 38.37 754.89 38.64 754.32 38.77 L 754.71 37.07 L 753.70 37.47 C 753.10 37.22 751.90 36.72 751.30 36.48 L 751.56 35.17 C 751.00 35.33 749.89 35.66 749.33 35.82 L 749.73 34.51 C 746.59 34.82 744.00 29.47 741.35 32.68 L 741.50 29.85 C 740.95 30.39 739.84 31.46 739.29 31.99 L 739.70 29.45 C 738.83 29.48 737.08 29.52 736.21 29.55 L 736.58 27.97 C 736.05 28.22 734.99 28.71 734.46 28.95 L 734.63 27.33 C 733.79 27.43 732.12 27.62 731.29 27.72 L 731.71 26.41 C 730.19 26.47 728.68 26.51 727.18 26.55 L 727.82 25.31 C 726.27 25.41 724.74 25.52 723.22 25.63 L 723.82 24.29 C 722.28 24.39 720.74 24.50 719.21 24.61 L 719.81 23.37 C 717.93 23.45 716.07 23.51 714.21 23.59 L 714.74 22.36 C 711.90 22.45 709.07 22.46 706.24 22.55 L 706.79 21.38 C 676.55 21.54 646.30 21.42 616.06 21.47 C 454.12 21.43 292.18 21.51 130.24 21.43 M 809.32 217.33 C 809.55 298.92 809.42 380.52 809.39 462.11 C 814.44 462.43 819.86 463.30 824.74 461.70 C 827.73 461.45 830.74 461.56 833.75 461.60 L 833.26 460.37 C 834.75 460.50 836.26 460.60 837.77 460.67 L 837.21 459.40 C 838.07 459.46 839.78 459.59 840.64 459.65 L 840.34 458.16 C 840.90 458.34 842.02 458.70 842.58 458.88 L 842.35 457.19 C 842.91 457.37 844.04 457.73 844.60 457.91 L 844.20 456.53 C 845.39 456.18 846.59 455.87 847.81 455.60 L 847.20 454.56 C 848.36 454.51 849.31 454.02 850.03 453.10 C 850.90 451.78 852.10 450.60 853.75 450.41 L 853.20 449.18 L 854.87 449.65 C 854.70 449.13 854.38 448.08 854.22 447.55 C 856.07 447.90 856.84 447.13 856.52 445.24 L 857.92 445.72 L 857.31 444.43 C 857.66 444.25 858.35 443.87 858.70 443.69 L 858.10 442.34 L 859.73 442.63 C 859.61 442.06 859.38 440.90 859.27 440.32 L 860.69 440.63 C 860.61 439.77 860.44 438.05 860.36 437.19 L 861.74 437.81 C 861.64 436.91 861.44 435.10 861.34 434.20 L 862.51 434.81 C 862.32 432.47 863.42 430.34 863.55 428.06 C 863.57 368.13 863.53 308.21 863.56 248.28 L 862.41 248.77 C 862.44 247.29 862.50 245.82 862.58 244.34 L 861.35 244.71 C 861.41 243.86 861.51 242.15 861.56 241.30 L 859.03 241.67 C 859.57 241.15 860.66 240.13 861.21 239.62 L 858.19 239.48 C 858.70 238.99 859.72 238.00 860.23 237.50 L 858.23 237.66 C 858.38 237.09 858.70 235.95 858.86 235.38 L 857.53 235.75 C 857.80 233.93 857.04 233.16 855.24 233.44 C 855.39 232.92 855.67 231.88 855.81 231.36 L 853.02 231.61 L 855.06 229.95 C 854.43 229.83 853.17 229.59 852.54 229.47 C 852.67 227.89 851.91 227.20 850.26 227.42 L 850.74 225.97 L 849.14 226.86 L 849.69 225.16 C 849.18 225.30 848.15 225.58 847.63 225.72 C 847.80 223.96 847.01 223.23 845.28 223.54 L 845.62 222.17 C 845.05 222.33 843.91 222.66 843.35 222.82 L 843.63 221.11 C 843.06 221.29 841.91 221.66 841.33 221.84 L 841.64 220.11 C 841.06 220.29 839.90 220.66 839.32 220.85 L 839.67 219.34 C 838.80 219.42 837.08 219.58 836.21 219.66 L 836.74 218.41 C 834.55 218.45 832.35 218.44 830.17 218.54 L 830.84 217.35 C 823.67 217.55 816.49 217.49 809.32 217.33 Z" />
</g>
<g id="#e3e3e3ff">
<path fill="#e3e3e3" opacity="1.00" d=" M 159.69 100.49 L 159.26 99.56 C 310.52 99.29 461.78 99.52 613.05 99.43 C 635.23 99.51 657.42 99.36 679.60 99.55 L 679.42 100.53 C 681.20 100.50 682.97 100.53 684.77 100.55 L 684.28 101.64 C 685.14 101.58 686.86 101.47 687.72 101.41 L 687.35 102.56 C 688.18 102.52 689.84 102.46 690.67 102.42 L 690.39 103.54 C 691.20 103.52 692.80 103.50 693.61 103.48 L 693.46 104.80 C 693.98 104.67 695.01 104.42 695.53 104.30 L 695.52 105.76 C 696.03 105.65 697.04 105.44 697.54 105.33 L 697.46 106.75 C 697.99 106.65 699.06 106.46 699.59 106.36 L 699.38 107.87 L 700.76 107.25 L 700.48 108.74 C 701.01 108.63 702.09 108.39 702.63 108.27 L 702.23 109.80 L 703.60 109.19 L 703.53 110.69 C 703.97 110.61 704.86 110.46 705.30 110.38 C 705.25 111.92 706.01 112.65 707.60 112.58 L 707.31 113.66 L 708.66 113.27 L 708.34 114.70 L 709.82 114.26 L 709.21 115.74 L 710.62 115.16 L 710.21 116.66 L 711.74 116.32 L 711.17 117.71 L 712.71 117.24 L 712.15 118.65 L 713.64 118.40 C 713.59 118.92 713.50 119.98 713.45 120.50 C 713.98 120.50 715.04 120.49 715.57 120.48 C 715.51 121.00 715.37 122.05 715.30 122.57 L 716.82 122.49 L 716.29 124.25 C 716.68 124.30 717.46 124.39 717.85 124.44 L 717.33 125.78 L 718.78 125.35 C 718.68 125.87 718.50 126.92 718.40 127.45 L 719.79 127.43 L 719.32 128.79 L 720.88 128.44 C 720.67 128.97 720.24 130.02 720.03 130.54 L 721.27 130.31 C 721.77 132.36 722.45 134.36 722.87 136.43 L 723.57 136.23 C 723.59 137.33 723.61 138.44 723.64 139.55 L 724.45 139.33 C 724.34 140.66 724.63 141.88 725.30 142.98 C 725.54 145.19 725.68 147.40 725.77 149.62 L 726.61 149.23 C 726.48 165.29 726.65 181.37 726.53 197.44 C 716.79 197.39 707.04 197.26 697.30 197.49 L 697.70 196.23 L 696.48 196.77 C 696.58 180.95 696.80 165.12 696.37 149.30 L 695.38 149.74 C 695.43 148.90 695.54 147.23 695.60 146.39 L 694.49 146.68 C 694.47 145.88 694.44 144.28 694.42 143.48 L 693.11 143.55 C 693.24 143.07 693.52 142.09 693.66 141.60 L 692.53 141.78 L 692.41 140.59 L 691.50 140.29 C 691.64 138.90 690.95 138.23 689.42 138.26 C 689.48 137.81 689.58 136.90 689.64 136.45 C 689.10 136.48 688.03 136.54 687.49 136.58 C 687.48 136.02 687.45 134.91 687.44 134.35 C 686.91 134.43 685.87 134.59 685.35 134.68 L 685.72 133.26 L 684.39 133.83 L 684.46 132.41 C 683.95 132.48 682.92 132.62 682.40 132.69 L 682.42 131.22 C 681.94 131.38 680.98 131.70 680.49 131.87 L 680.53 130.49 C 679.75 130.52 678.20 130.56 677.42 130.58 C 677.45 130.34 677.50 129.84 677.52 129.59 C 653.68 129.12 629.81 129.52 605.96 129.37 C 459.33 129.41 312.69 129.37 166.06 129.39 C 163.13 129.22 160.36 130.23 157.53 130.76 L 157.53 131.72 C 157.00 131.64 155.93 131.46 155.40 131.37 L 155.51 132.83 C 155.03 132.70 154.09 132.43 153.62 132.30 L 153.73 133.67 L 152.40 133.41 L 152.49 134.83 L 150.70 134.25 C 150.63 134.84 150.50 136.02 150.44 136.61 C 149.94 136.56 148.95 136.46 148.46 136.41 C 148.48 136.89 148.52 137.84 148.54 138.31 C 147.01 138.19 146.30 138.89 146.41 140.44 L 145.34 140.42 L 145.65 141.33 C 145.38 141.50 144.85 141.82 144.58 141.99 L 144.61 143.46 C 144.27 143.53 143.60 143.65 143.26 143.72 L 143.86 145.44 L 142.52 145.46 C 142.53 146.26 142.56 147.86 142.58 148.66 L 141.61 148.32 C 141.43 151.10 141.35 153.88 141.45 156.66 L 140.50 156.33 C 140.68 160.71 140.71 165.10 140.46 169.48 L 143.98 170.00 L 140.47 170.52 C 140.69 199.84 140.68 229.17 140.47 258.48 L 143.97 259.00 L 140.49 259.52 C 140.70 346.89 140.63 434.27 140.52 521.64 L 141.44 521.32 C 141.41 523.38 141.51 525.45 141.61 527.51 L 142.80 527.49 C 142.65 528.02 142.36 529.07 142.22 529.60 L 143.71 529.38 C 143.59 529.93 143.35 531.03 143.23 531.59 L 144.68 531.41 C 144.59 531.93 144.40 532.98 144.30 533.50 L 145.47 533.43 C 145.24 535.10 145.95 535.83 147.60 535.63 C 147.53 536.08 147.38 536.98 147.31 537.42 L 148.43 537.29 L 148.64 538.37 L 149.75 538.58 L 149.54 539.71 C 150.05 539.63 151.07 539.47 151.58 539.39 C 151.55 539.90 151.47 540.91 151.43 541.42 C 151.98 541.42 153.07 541.43 153.62 541.44 L 153.59 542.89 C 154.06 542.69 155.00 542.30 155.48 542.11 L 155.51 543.73 C 156.01 543.61 157.02 543.37 157.52 543.25 L 157.48 544.25 C 160.32 544.70 163.06 545.84 165.98 545.65 C 330.50 545.55 495.02 545.76 659.53 545.55 L 660.00 547.67 L 660.48 545.55 C 662.48 545.65 664.49 545.64 666.51 545.56 L 666.99 547.59 L 667.51 545.54 C 670.49 545.66 673.49 545.60 676.47 545.41 L 676.40 544.45 C 677.20 544.49 678.81 544.57 679.61 544.61 L 679.47 543.25 C 679.99 543.40 681.01 543.70 681.53 543.85 L 681.41 542.32 C 681.94 542.44 683.00 542.66 683.53 542.78 L 683.45 541.29 C 683.96 541.39 684.98 541.59 685.49 541.69 L 685.24 540.24 L 686.56 540.72 L 686.34 539.25 L 687.79 539.80 L 687.29 538.64 C 689.23 538.68 690.18 537.19 690.67 535.55 L 691.68 535.56 L 691.42 534.28 L 692.67 534.41 C 692.59 533.91 692.43 532.90 692.36 532.40 L 693.80 532.54 C 693.69 532.00 693.46 530.93 693.35 530.39 L 694.93 530.53 C 694.73 530.01 694.33 528.99 694.12 528.48 L 695.30 528.60 C 695.58 526.05 696.68 523.63 696.60 521.04 C 696.54 508.18 696.72 495.32 696.52 482.46 C 706.54 482.38 716.57 482.51 726.59 482.34 C 726.51 497.44 726.65 512.54 726.45 527.64 L 725.57 527.42 C 725.50 529.48 725.39 531.53 725.42 533.60 L 724.40 533.36 C 724.43 534.19 724.48 535.86 724.50 536.69 L 723.39 536.40 C 723.42 537.22 723.48 538.84 723.51 539.66 L 722.13 539.49 C 722.31 540.00 722.67 541.01 722.85 541.52 L 721.71 541.42 C 721.35 542.71 721.32 544.19 720.37 545.25 C 720.17 545.82 719.76 546.96 719.55 547.53 L 718.40 547.53 C 718.46 548.05 718.59 549.09 718.65 549.62 L 717.26 549.25 L 717.81 550.21 L 716.69 550.78 C 716.62 551.19 716.48 552.02 716.41 552.43 L 715.30 552.44 L 715.62 553.73 L 714.31 553.48 C 714.39 553.99 714.53 555.01 714.60 555.52 C 714.08 555.52 713.05 555.52 712.53 555.52 C 712.55 556.04 712.59 557.09 712.61 557.61 L 711.18 557.32 L 711.67 558.70 L 710.27 558.31 L 710.72 559.74 L 709.24 559.29 L 709.74 560.68 L 708.44 560.21 L 708.52 561.32 C 706.96 561.31 706.24 562.07 706.35 563.61 C 705.89 563.53 704.99 563.38 704.53 563.31 L 704.63 564.77 L 703.31 564.18 L 703.63 565.66 C 703.13 565.58 702.12 565.42 701.62 565.34 L 701.65 566.76 L 700.35 566.17 L 700.61 567.65 C 700.10 567.58 699.07 567.42 698.56 567.35 L 698.51 568.79 C 698.04 568.67 697.10 568.44 696.63 568.32 L 696.47 569.84 L 694.70 569.30 C 694.64 569.65 694.53 570.37 694.47 570.73 C 693.97 570.63 692.98 570.41 692.48 570.31 L 692.50 571.79 C 691.99 571.63 690.97 571.31 690.46 571.15 L 690.63 572.47 C 689.62 572.50 687.62 572.55 686.61 572.58 L 686.74 573.50 C 685.06 573.59 683.38 573.69 681.71 573.78 L 681.76 574.60 C 680.32 574.60 678.88 574.60 677.46 574.60 L 677.58 575.52 C 506.01 575.58 334.43 575.60 162.85 575.51 C 162.42 575.80 161.56 576.38 161.13 576.67 L 161.69 574.73 C 159.86 574.67 158.04 574.64 156.22 574.63 L 156.31 573.72 C 155.53 573.74 153.96 573.77 153.18 573.79 L 153.66 573.15 C 152.86 573.30 151.24 573.60 150.44 573.75 L 150.49 572.44 C 149.71 572.48 148.16 572.57 147.39 572.61 L 147.61 571.34 C 147.06 571.45 145.98 571.68 145.44 571.80 L 145.47 570.50 C 144.94 570.56 143.88 570.68 143.36 570.73 L 143.51 569.66 C 142.72 569.62 141.14 569.54 140.34 569.50 L 140.57 568.20 C 140.02 568.33 138.93 568.60 138.38 568.74 L 138.63 567.23 C 138.06 567.33 136.93 567.54 136.37 567.65 C 136.43 567.15 136.56 566.15 136.62 565.65 C 135.81 565.60 134.19 565.49 133.38 565.43 C 133.43 564.97 133.54 564.04 133.59 563.58 C 133.04 563.60 131.93 563.64 131.38 563.66 L 131.61 562.32 C 131.08 562.37 130.02 562.48 129.50 562.53 C 129.50 562.01 129.52 560.99 129.52 560.48 C 129.07 560.49 128.17 560.51 127.71 560.52 C 127.69 559.16 127.03 558.40 125.73 558.23 C 125.62 556.81 124.84 556.19 123.40 556.36 C 123.47 555.89 123.62 554.93 123.70 554.46 L 122.36 554.69 L 122.74 553.31 L 121.55 553.61 C 121.19 552.48 120.79 551.38 120.34 550.29 L 119.19 550.60 C 119.33 550.08 119.61 549.04 119.75 548.53 L 118.24 548.77 L 118.88 547.38 L 117.34 547.59 C 117.45 547.05 117.66 545.96 117.76 545.42 L 116.24 545.56 C 116.40 545.03 116.70 543.96 116.85 543.43 L 115.51 543.64 C 115.50 542.81 115.48 541.16 115.47 540.33 L 114.14 540.57 C 114.32 540.04 114.68 538.99 114.86 538.46 L 113.49 538.70 C 113.51 537.87 113.56 536.20 113.58 535.36 L 112.46 535.65 C 112.51 534.18 112.52 532.71 112.50 531.25 L 111.52 531.72 C 111.49 528.33 111.32 524.95 111.21 521.56 L 110.46 521.78 C 110.58 436.87 110.42 351.96 110.50 267.05 C 110.40 229.13 110.70 191.21 110.37 153.30 L 111.23 153.56 C 111.36 150.45 111.50 147.35 111.56 144.25 L 112.54 144.71 C 112.54 143.23 112.53 141.75 112.54 140.27 L 113.67 140.68 C 113.61 139.84 113.47 138.15 113.40 137.30 L 114.54 137.70 C 114.54 136.83 114.55 135.11 114.56 134.24 L 115.91 134.61 C 115.74 134.07 115.41 132.98 115.24 132.43 L 116.77 132.55 C 116.64 132.10 116.38 131.20 116.25 130.76 L 117.43 130.29 C 117.44 129.83 117.45 128.90 117.46 128.43 L 118.69 128.43 C 118.60 127.92 118.42 126.90 118.33 126.39 L 119.80 126.70 L 119.27 125.80 L 120.26 125.26 C 120.32 124.81 120.43 123.90 120.48 123.45 L 121.73 123.54 C 121.65 123.03 121.48 122.00 121.39 121.49 C 121.93 121.49 123.01 121.49 123.55 121.49 C 123.51 120.95 123.43 119.88 123.39 119.35 L 124.82 119.70 L 124.23 118.24 L 125.83 118.71 L 125.08 117.31 L 126.66 117.76 L 126.19 116.33 L 127.71 116.55 C 127.63 116.02 127.48 114.95 127.40 114.42 C 127.95 114.48 129.04 114.62 129.59 114.69 L 129.33 113.19 L 130.61 113.81 L 130.29 112.32 L 131.71 112.76 L 131.35 111.61 C 132.98 111.76 133.76 111.02 133.67 109.40 C 134.16 109.50 135.13 109.69 135.62 109.79 L 135.40 108.33 C 135.92 108.42 136.97 108.60 137.50 108.69 L 137.32 107.28 L 138.59 107.88 L 138.45 106.44 C 138.98 106.49 140.06 106.60 140.60 106.65 L 140.49 105.20 C 140.99 105.37 141.99 105.72 142.49 105.90 L 142.35 104.66 C 143.86 104.84 145.05 104.38 145.92 103.27 C 146.31 103.40 147.09 103.67 147.49 103.81 L 147.31 102.48 C 148.13 102.49 149.78 102.52 150.60 102.53 L 150.35 101.51 C 151.77 101.52 153.19 101.51 154.61 101.49 L 154.29 100.50 C 156.09 100.51 157.89 100.49 159.69 100.49 Z" />
<path fill="#e3e3e3" opacity="1.00" d=" M 239.64 216.51 L 239.31 215.56 C 254.79 215.66 270.27 215.66 285.75 215.56 L 285.27 216.52 C 286.77 216.48 288.27 216.47 289.77 216.48 L 289.40 217.80 C 289.94 217.66 291.03 217.39 291.57 217.25 L 291.43 218.75 C 291.96 218.66 293.00 218.48 293.53 218.39 C 293.51 218.93 293.47 220.01 293.45 220.55 C 293.99 220.52 295.07 220.44 295.60 220.41 C 295.56 220.92 295.47 221.94 295.43 222.46 C 295.86 222.47 296.71 222.50 297.14 222.51 C 297.66 224.78 300.59 225.23 300.78 227.60 C 301.23 227.55 302.11 227.44 302.56 227.38 C 302.52 227.94 302.43 229.06 302.39 229.62 C 302.93 229.57 304.01 229.47 304.56 229.41 C 304.54 229.96 304.50 231.04 304.48 231.58 C 304.90 231.56 305.74 231.51 306.16 231.49 C 306.96 233.75 309.04 235.09 310.71 236.67 L 310.45 237.72 C 310.91 237.63 311.82 237.47 312.27 237.38 C 312.51 239.58 314.43 240.81 316.18 241.84 C 316.56 243.48 318.69 243.74 318.76 245.56 C 319.21 245.53 320.10 245.48 320.54 245.45 C 320.51 245.96 320.44 246.99 320.41 247.51 C 320.92 247.51 321.95 247.51 322.47 247.51 C 322.48 248.02 322.50 249.06 322.51 249.58 C 323.03 249.55 324.05 249.49 324.56 249.46 C 324.53 249.96 324.46 250.96 324.42 251.47 C 324.93 251.48 325.96 251.49 326.47 251.50 C 326.47 252.03 326.48 253.09 326.48 253.61 C 327.01 253.57 328.06 253.48 328.58 253.43 C 328.54 253.96 328.44 255.01 328.40 255.54 C 328.94 255.52 330.01 255.49 330.55 255.47 C 330.50 256.00 330.40 257.04 330.35 257.56 L 331.45 257.23 L 331.61 258.35 L 332.71 258.55 L 332.50 259.66 C 333.02 259.60 334.06 259.49 334.57 259.43 C 334.52 259.95 334.41 260.99 334.35 261.51 L 335.77 261.33 L 335.52 262.68 C 336.04 262.60 337.07 262.44 337.59 262.36 C 337.53 262.89 337.41 263.93 337.35 264.46 L 338.74 264.34 L 338.47 265.69 C 338.99 265.62 340.02 265.47 340.54 265.39 C 340.51 265.94 340.45 267.04 340.42 267.59 C 340.96 267.56 342.04 267.50 342.59 267.47 C 342.51 267.99 342.37 269.04 342.29 269.56 L 343.54 269.21 L 343.46 270.52 L 344.80 270.39 L 344.26 271.48 L 345.63 271.37 L 345.52 272.72 L 346.75 272.27 L 346.37 273.67 L 347.78 273.30 L 347.41 274.67 L 348.72 274.32 L 348.38 275.68 L 349.83 275.44 L 349.20 276.73 L 350.71 276.34 C 350.62 276.86 350.45 277.91 350.36 278.44 L 351.76 278.37 L 351.20 279.78 L 352.55 279.37 C 352.51 280.78 352.51 282.20 352.53 283.62 L 353.45 283.31 C 353.39 285.39 353.40 287.48 353.47 289.56 L 352.55 289.53 C 352.55 290.29 352.56 291.82 352.56 292.58 L 351.47 292.53 C 351.47 293.24 351.48 294.66 351.48 295.37 C 349.89 295.25 349.21 296.01 349.43 297.63 L 348.26 297.30 L 348.80 298.63 L 347.39 298.42 C 347.42 298.89 347.48 299.83 347.51 300.30 C 345.98 300.19 345.23 300.91 345.26 302.45 C 344.80 302.46 343.87 302.48 343.41 302.49 C 343.43 303.00 343.49 304.02 343.51 304.54 C 343.08 304.49 342.21 304.41 341.77 304.36 C 340.30 306.95 338.07 309.42 335.43 310.78 C 335.45 311.22 335.49 312.08 335.51 312.52 C 335.00 312.48 333.98 312.41 333.47 312.38 L 333.73 313.49 L 332.59 313.57 L 332.46 314.70 L 331.38 314.51 C 331.41 314.93 331.46 315.76 331.49 316.17 C 329.63 316.95 327.64 318.45 327.26 320.54 C 326.93 320.52 326.27 320.47 325.94 320.44 C 324.85 322.87 321.99 323.94 321.20 326.54 C 320.76 326.53 319.89 326.50 319.46 326.49 C 319.47 327.01 319.51 328.05 319.53 328.57 C 319.04 328.53 318.07 328.44 317.59 328.40 L 317.67 329.68 L 316.39 329.62 C 316.43 330.02 316.52 330.83 316.56 331.23 C 314.92 331.43 314.01 332.88 313.00 334.00 C 311.86 335.00 310.56 335.99 310.22 337.57 C 309.77 337.53 308.86 337.47 308.41 337.44 C 308.45 337.96 308.54 339.02 308.58 339.55 C 308.05 339.49 307.00 339.37 306.47 339.31 L 306.52 340.73 C 306.03 340.64 305.05 340.47 304.56 340.38 L 304.52 341.77 C 304.03 341.63 303.05 341.36 302.56 341.22 L 302.53 342.44 C 299.44 342.43 296.35 342.43 293.26 342.46 L 293.46 341.13 C 293.06 341.30 292.25 341.65 291.84 341.83 L 291.22 340.67 C 290.77 340.63 289.87 340.55 289.41 340.51 L 289.53 339.31 C 289.00 339.38 287.94 339.50 287.40 339.57 C 287.45 339.05 287.54 338.02 287.59 337.51 C 287.14 337.52 286.25 337.54 285.81 337.55 C 285.47 336.50 284.87 335.66 283.99 335.01 C 282.49 333.67 281.13 332.17 280.03 330.48 C 279.62 330.50 278.81 330.53 278.40 330.55 C 278.45 330.12 278.55 329.28 278.60 328.86 C 274.54 326.83 272.54 322.14 268.51 320.18 C 268.50 319.75 268.48 318.88 268.47 318.45 C 267.95 318.47 266.91 318.53 266.39 318.55 C 266.45 318.04 266.57 317.01 266.63 316.50 L 265.25 316.71 L 265.47 315.33 C 264.96 315.40 263.94 315.53 263.43 315.60 C 263.49 315.09 263.60 314.06 263.66 313.55 L 262.29 313.68 L 262.53 312.80 C 261.01 312.14 259.67 311.05 259.15 309.43 C 258.72 309.47 257.86 309.55 257.43 309.59 C 257.47 309.08 257.56 308.06 257.60 307.55 L 256.31 307.68 L 256.47 306.46 C 256.04 306.46 255.18 306.46 254.75 306.46 C 254.72 304.96 253.96 304.23 252.46 304.29 C 252.49 303.84 252.54 302.94 252.57 302.48 C 252.13 302.50 251.25 302.53 250.81 302.55 C 250.30 301.49 249.78 300.43 249.24 299.39 C 248.79 299.43 247.89 299.51 247.43 299.55 C 247.49 299.02 247.59 297.96 247.64 297.44 L 246.38 297.71 L 246.58 296.35 L 245.17 296.64 L 245.71 295.30 L 244.40 295.84 L 244.63 294.41 L 243.25 294.65 L 243.58 293.32 C 243.03 293.39 241.95 293.53 241.41 293.60 C 241.48 293.07 241.62 292.00 241.69 291.46 L 240.47 291.77 L 240.51 290.49 L 239.23 290.60 L 239.62 289.40 L 238.24 289.70 L 238.50 288.33 C 237.99 288.40 236.96 288.55 236.45 288.63 C 236.49 288.08 236.58 286.97 236.62 286.42 C 236.06 286.45 234.95 286.50 234.40 286.53 C 234.47 286.02 234.61 285.00 234.67 284.49 L 233.35 284.71 L 233.47 283.35 C 232.96 283.40 231.95 283.52 231.45 283.57 C 231.50 283.03 231.60 281.96 231.65 281.42 L 230.15 281.61 L 230.79 280.33 L 229.22 280.75 L 229.81 279.31 L 228.36 279.63 C 228.42 279.11 228.53 278.08 228.59 277.57 L 227.38 277.67 L 227.65 276.40 L 226.49 276.51 C 226.47 275.49 226.43 273.44 226.42 272.42 C 226.18 272.48 225.71 272.59 225.47 272.64 C 225.57 259.10 225.56 245.56 225.53 232.02 C 225.45 229.36 226.50 226.86 226.66 224.23 L 227.44 224.81 C 227.80 223.63 228.20 222.46 228.63 221.30 L 229.81 221.69 L 229.24 220.23 L 230.77 220.62 L 230.24 219.22 L 231.65 219.80 L 231.46 218.27 L 233.39 218.67 L 233.37 217.35 C 233.93 217.40 235.04 217.50 235.59 217.55 L 235.34 216.41 C 236.77 216.43 238.21 216.47 239.64 216.51 M 254.66 245.41 C 254.76 251.40 254.73 257.40 254.69 263.40 L 255.53 263.30 L 255.46 264.58 L 256.78 264.37 L 256.35 265.67 L 257.82 265.31 L 257.34 266.74 L 258.80 266.26 L 258.26 267.73 L 259.82 267.30 L 259.13 268.66 L 260.65 268.28 L 260.21 269.69 L 261.69 269.31 L 261.24 270.82 L 262.72 270.27 L 262.26 271.71 L 263.68 271.33 L 263.37 272.78 L 264.76 272.26 L 264.16 273.70 L 265.61 273.36 C 265.60 273.89 265.58 274.96 265.57 275.49 C 266.09 275.46 267.12 275.39 267.64 275.36 L 267.25 276.80 L 268.73 276.29 L 268.17 277.65 L 269.64 277.38 L 269.36 278.87 L 270.77 278.27 L 270.25 279.88 L 271.79 279.30 L 271.26 280.83 L 272.79 280.30 L 272.37 281.92 L 273.85 281.17 L 273.20 282.77 L 274.78 282.22 L 274.15 283.62 L 275.67 283.29 L 275.30 284.76 L 276.61 284.31 C 276.60 284.86 276.58 285.96 276.57 286.51 C 277.09 286.47 278.11 286.40 278.62 286.37 L 278.31 287.85 L 279.80 287.27 L 279.17 288.77 L 280.75 288.23 L 280.19 289.78 L 281.67 289.25 L 281.18 290.74 L 282.65 290.37 C 282.61 290.89 282.53 291.94 282.48 292.47 C 283.03 292.43 284.11 292.36 284.65 292.33 L 284.17 293.68 L 285.28 293.37 C 285.59 295.11 286.93 296.30 288.61 296.73 C 288.59 297.17 288.56 298.04 288.54 298.48 C 289.07 298.45 290.12 298.38 290.65 298.34 L 290.17 299.74 L 291.65 299.31 L 291.22 300.68 L 292.24 300.47 C 292.45 301.80 293.21 302.58 294.53 302.79 L 294.35 303.86 L 295.42 303.40 C 295.23 304.94 295.90 305.67 297.41 305.60 C 297.55 306.23 297.83 307.49 297.97 308.12 C 298.11 307.41 298.40 306.01 298.54 305.31 L 299.59 305.92 L 299.28 304.39 L 300.71 304.71 L 300.26 303.35 L 301.67 303.83 L 301.38 302.66 C 302.93 302.66 303.67 301.89 303.60 300.34 L 304.77 300.76 L 304.24 299.44 L 305.66 299.67 L 305.45 298.24 L 306.76 298.79 L 306.27 297.47 L 307.71 297.63 L 307.45 296.21 L 308.81 296.72 L 308.27 295.22 L 309.67 295.84 L 309.28 294.29 L 310.77 294.75 L 310.23 293.44 L 311.70 293.72 L 311.39 292.21 L 312.65 292.87 L 312.35 291.37 L 313.84 291.67 L 313.24 290.27 L 314.80 290.80 L 314.33 289.63 C 315.85 289.70 316.61 288.99 316.62 287.49 C 317.26 287.36 318.55 287.10 319.19 286.97 C 318.28 286.79 317.38 286.61 316.47 286.42 C 316.44 285.68 316.37 284.22 316.33 283.49 C 315.84 283.56 314.85 283.71 314.36 283.79 L 314.83 282.29 L 313.29 282.77 L 313.79 281.24 L 312.39 281.86 L 312.73 280.34 L 311.22 280.67 L 311.78 279.23 L 310.23 279.83 L 310.80 278.24 L 309.31 278.89 L 309.78 277.30 L 308.18 277.70 L 308.80 276.22 L 307.24 276.78 L 307.79 275.38 L 306.27 275.68 L 306.72 274.17 L 305.23 274.78 L 305.85 273.25 L 304.39 273.82 L 304.77 272.31 L 303.23 272.63 L 303.84 271.31 L 302.29 271.71 L 302.74 270.15 L 301.22 270.77 L 301.85 269.17 L 300.25 269.75 L 300.82 268.27 L 299.32 268.66 L 299.61 267.14 L 298.21 267.71 L 298.77 266.15 L 297.21 266.74 L 297.81 265.30 L 296.26 265.72 L 296.77 264.17 L 295.22 264.85 L 295.93 263.34 L 294.36 263.65 C 294.40 263.13 294.48 262.08 294.52 261.56 C 293.97 261.58 292.88 261.61 292.34 261.63 L 292.74 260.15 L 291.24 260.76 L 291.75 259.16 L 290.20 259.79 L 290.90 258.32 L 289.32 258.73 L 289.75 257.22 L 288.28 257.78 L 288.89 256.26 L 287.33 256.73 L 287.82 255.36 L 286.36 255.63 L 286.68 254.16 L 285.30 254.69 L 285.73 253.18 L 284.35 253.67 C 284.38 253.13 284.44 252.04 284.47 251.49 C 283.96 251.52 282.94 251.57 282.43 251.59 C 282.44 251.09 282.47 250.07 282.48 249.57 C 281.98 249.57 280.96 249.57 280.45 249.57 C 280.45 249.05 280.44 248.02 280.43 247.50 C 279.92 247.52 278.88 247.55 278.37 247.56 C 278.41 247.05 278.49 246.03 278.54 245.52 C 270.58 245.28 262.62 245.48 254.66 245.41 Z" />
<path fill="#e3e3e3" opacity="1.00" d=" M 581.43 220.43 C 586.00 219.59 590.27 217.19 595.04 217.16 C 609.03 216.85 623.03 217.14 637.03 216.97 C 640.72 216.77 644.42 216.92 648.10 217.28 C 640.62 218.36 633.10 221.22 627.96 226.97 C 619.37 234.01 615.02 245.14 614.59 256.06 C 614.68 312.36 614.60 368.66 614.67 424.96 C 614.82 432.12 617.42 438.99 620.89 445.17 C 625.33 451.54 631.44 456.81 638.59 459.91 C 641.73 460.91 645.03 461.33 648.15 462.45 C 633.12 463.04 618.07 462.35 603.04 462.66 C 593.80 462.95 584.04 461.29 576.46 455.69 C 574.65 454.47 573.19 452.74 571.20 451.82 C 570.73 451.73 569.79 451.56 569.32 451.48 L 569.82 450.37 L 568.39 450.71 L 568.74 449.40 L 567.41 449.51 C 567.43 448.99 567.46 447.96 567.48 447.44 C 566.96 447.46 565.93 447.51 565.41 447.53 C 565.50 447.00 565.67 445.94 565.76 445.40 L 564.23 445.53 C 564.37 445.03 564.64 444.02 564.78 443.52 L 563.27 443.53 C 563.38 443.04 563.61 442.05 563.72 441.55 L 562.25 441.51 C 562.39 441.00 562.65 439.98 562.78 439.48 L 561.23 439.52 C 561.40 439.00 561.73 437.95 561.90 437.42 L 560.78 437.67 C 560.57 435.93 560.40 434.19 559.79 432.55 C 559.11 427.74 559.31 422.87 559.30 418.03 C 559.28 385.69 559.34 353.34 559.30 321.00 C 559.48 296.44 558.92 271.88 559.59 247.34 L 560.50 247.62 C 560.50 246.18 560.51 244.75 560.52 243.32 L 561.37 243.71 C 561.83 241.92 562.32 240.13 562.72 238.33 L 563.35 238.80 C 563.45 236.69 565.74 235.53 565.74 233.31 L 566.81 233.48 C 566.69 232.99 566.46 232.01 566.34 231.51 C 566.87 231.50 567.93 231.48 568.46 231.47 C 568.43 230.95 568.38 229.89 568.35 229.36 L 569.27 229.77 C 569.61 229.37 570.31 228.57 570.66 228.17 L 570.32 227.28 L 571.29 227.75 L 571.62 226.63 L 572.77 226.30 L 572.25 225.28 L 573.67 225.78 L 573.40 224.35 C 573.93 224.38 575.00 224.46 575.54 224.49 C 575.50 224.07 575.44 223.21 575.41 222.79 C 577.15 222.56 578.86 222.02 579.88 220.47 C 580.27 220.46 581.04 220.44 581.43 220.43 Z" />
<path fill="#e3e3e3" opacity="1.00" d=" M 455.87 227.23 C 456.28 227.38 457.10 227.68 457.51 227.83 L 457.30 226.54 C 460.43 226.50 463.56 226.50 466.70 226.56 L 466.45 227.85 C 466.97 227.67 468.02 227.30 468.54 227.12 L 468.49 228.67 C 469.03 228.58 470.11 228.39 470.65 228.29 L 470.25 229.71 L 471.73 229.27 L 471.30 230.80 L 472.77 230.17 L 472.09 231.60 L 473.59 231.33 L 473.16 232.76 L 474.64 232.44 C 474.53 232.98 474.31 234.05 474.20 234.59 L 475.41 234.33 C 475.73 238.42 475.95 242.52 475.52 246.61 L 474.40 246.55 C 474.49 247.05 474.67 248.06 474.75 248.56 L 473.44 248.57 C 473.49 249.06 473.58 250.03 473.62 250.52 C 473.11 250.56 472.10 250.66 471.59 250.71 C 471.62 251.18 471.69 252.13 471.72 252.61 L 470.33 252.41 C 470.38 252.97 470.49 254.07 470.54 254.62 C 470.02 254.53 468.98 254.36 468.46 254.28 L 468.74 255.59 L 467.45 255.49 L 467.56 256.80 L 466.35 256.35 L 466.73 257.68 L 465.42 257.40 L 465.70 258.67 L 464.41 258.40 L 464.71 259.69 L 463.63 259.36 L 463.51 260.53 L 462.34 260.64 L 462.67 261.74 L 461.34 261.38 L 461.68 262.81 L 460.29 262.29 L 460.82 263.62 L 459.49 263.36 L 459.62 264.62 L 458.72 264.48 C 458.49 265.90 457.42 266.82 456.09 267.22 C 455.88 267.81 455.47 268.97 455.26 269.56 C 454.79 269.52 453.85 269.44 453.39 269.40 C 453.44 269.94 453.53 271.03 453.58 271.57 C 453.17 271.53 452.35 271.45 451.94 271.42 C 451.05 273.31 449.08 274.33 448.12 276.19 C 446.64 276.76 446.04 278.47 444.44 278.87 C 444.47 279.28 444.52 280.10 444.55 280.51 C 444.01 280.50 442.95 280.48 442.41 280.47 C 442.44 281.00 442.49 282.04 442.51 282.57 C 442.08 282.52 441.22 282.43 440.79 282.38 C 440.28 283.33 439.77 284.26 439.24 285.20 C 437.37 286.10 436.32 288.06 434.42 288.92 C 434.46 289.33 434.53 290.15 434.56 290.55 C 434.05 290.52 433.04 290.45 432.53 290.42 C 432.52 290.88 432.50 291.80 432.49 292.27 C 430.60 292.43 429.39 293.59 429.23 295.49 C 428.88 295.49 428.19 295.47 427.84 295.46 C 427.28 297.76 424.50 298.14 424.20 300.53 C 423.75 300.52 422.86 300.49 422.41 300.47 C 422.45 301.00 422.53 302.04 422.57 302.57 C 422.05 302.54 421.01 302.49 420.49 302.46 C 420.50 302.89 420.50 303.75 420.50 304.17 C 417.83 305.53 415.62 307.94 414.16 310.54 C 413.74 310.52 412.91 310.48 412.49 310.46 C 412.49 310.97 412.50 312.00 412.51 312.51 C 412.11 312.51 411.30 312.51 410.90 312.50 C 409.90 314.88 407.44 315.98 406.12 318.12 C 403.29 320.71 400.21 323.21 398.09 326.45 C 397.68 326.48 396.84 326.52 396.42 326.55 C 396.46 327.05 396.52 328.04 396.56 328.54 C 396.04 328.52 395.00 328.48 394.48 328.46 C 394.49 328.99 394.52 330.03 394.53 330.55 C 394.10 330.52 393.25 330.47 392.82 330.44 C 392.01 333.44 388.29 334.44 387.32 337.28 C 385.59 337.54 384.79 339.09 384.21 340.55 C 383.77 340.54 382.88 340.54 382.44 340.53 C 382.47 341.05 382.52 342.08 382.55 342.60 C 382.05 342.55 381.05 342.44 380.55 342.39 C 380.60 342.92 380.69 343.98 380.73 344.51 C 381.14 344.48 381.95 344.42 382.36 344.38 C 382.23 346.00 382.98 346.76 384.59 346.65 C 384.56 347.09 384.50 347.98 384.47 348.42 C 384.90 348.44 385.76 348.48 386.19 348.50 C 387.09 350.87 389.44 352.13 391.00 354.02 C 392.82 355.49 394.03 357.63 396.05 358.88 C 398.01 361.03 399.87 363.47 402.50 364.85 C 402.50 365.28 402.50 366.14 402.50 366.57 C 403.02 366.53 404.06 366.46 404.57 366.42 C 404.55 366.95 404.50 368.01 404.48 368.54 C 405.01 368.51 406.06 368.45 406.58 368.42 C 406.56 368.94 406.50 369.99 406.47 370.51 C 406.99 370.49 408.04 370.46 408.57 370.44 C 408.55 370.96 408.51 372.01 408.50 372.54 C 409.03 372.51 410.08 372.46 410.61 372.43 C 410.56 372.85 410.45 373.70 410.39 374.12 C 411.97 374.60 413.07 375.78 413.78 377.24 C 414.65 377.82 415.56 378.35 416.50 378.82 C 416.53 379.26 416.59 380.13 416.62 380.56 C 417.11 380.52 418.10 380.45 418.59 380.41 C 418.56 380.94 418.52 382.01 418.50 382.54 C 418.96 382.50 419.89 382.41 420.35 382.37 C 420.63 383.28 420.90 384.20 421.17 385.13 C 421.24 384.42 421.36 383.01 421.43 382.30 L 422.72 382.80 L 422.22 381.48 L 423.61 381.62 L 423.39 380.26 L 424.66 380.64 L 424.30 379.34 L 425.66 379.63 L 425.49 378.49 C 426.97 378.63 427.70 377.97 427.71 376.50 C 428.45 376.51 429.92 376.54 430.66 376.55 L 430.30 375.50 C 433.08 375.55 435.86 375.54 438.65 375.47 L 438.46 376.52 C 439.25 376.50 440.83 376.46 441.62 376.45 L 441.38 377.78 C 441.91 377.68 442.97 377.48 443.50 377.38 C 443.51 377.92 443.53 379.00 443.54 379.54 C 444.07 379.48 445.13 379.38 445.66 379.33 L 445.17 380.67 L 446.64 380.37 L 446.33 381.95 L 447.55 381.32 C 447.54 382.11 447.53 383.68 447.52 384.46 L 448.51 384.40 C 448.76 388.15 448.76 391.92 448.47 395.68 L 447.26 395.43 C 447.39 395.95 447.66 396.99 447.80 397.50 L 446.31 397.47 C 446.38 398.00 446.53 399.05 446.60 399.58 C 446.07 399.55 445.01 399.49 444.48 399.46 C 444.53 400.02 444.62 401.14 444.66 401.69 L 443.18 401.18 L 443.66 402.38 C 441.47 401.97 441.37 403.95 441.32 405.51 L 442.60 405.22 L 442.45 406.56 C 442.96 406.55 443.98 406.54 444.49 406.53 C 444.50 407.05 444.51 408.10 444.52 408.62 C 445.04 408.57 446.09 408.46 446.61 408.41 C 446.54 408.93 446.40 409.96 446.33 410.48 L 447.69 410.24 L 447.51 411.65 C 448.02 411.58 449.03 411.46 449.54 411.39 C 449.51 411.94 449.44 413.04 449.40 413.58 C 449.94 413.55 451.02 413.48 451.56 413.45 C 451.52 414.00 451.45 415.12 451.41 415.67 C 451.94 415.60 453.00 415.45 453.53 415.38 C 453.51 415.93 453.47 417.03 453.46 417.57 C 453.99 417.54 455.06 417.48 455.60 417.45 C 455.54 417.99 455.43 419.08 455.37 419.62 C 455.93 419.57 457.04 419.48 457.60 419.43 C 457.52 419.96 457.36 421.02 457.28 421.55 L 458.42 421.19 L 458.60 422.34 L 459.70 422.55 L 459.52 423.66 C 460.03 423.61 461.07 423.49 461.59 423.44 C 461.52 423.96 461.37 425.02 461.30 425.54 L 462.65 425.23 L 462.40 426.55 L 463.70 426.29 L 463.55 427.62 C 464.05 427.57 465.05 427.48 465.56 427.43 C 465.53 427.98 465.47 429.06 465.44 429.60 C 465.97 429.56 467.03 429.48 467.56 429.43 C 467.50 429.96 467.37 431.02 467.30 431.55 L 468.71 431.42 C 468.64 431.94 468.50 432.97 468.43 433.49 L 469.84 433.35 L 469.19 434.76 L 470.46 434.24 C 470.48 435.08 470.52 436.75 470.53 437.59 L 471.51 437.40 C 471.34 439.47 471.39 441.56 471.59 443.64 L 470.68 443.53 C 470.63 444.57 470.54 446.65 470.50 447.70 L 469.23 447.47 C 469.36 447.99 469.61 449.02 469.73 449.54 L 468.31 449.29 L 468.80 450.58 L 467.49 450.40 L 467.68 451.63 L 466.44 451.47 L 466.59 452.75 L 465.30 452.43 L 465.57 453.76 C 465.08 453.68 464.10 453.51 463.61 453.43 L 463.46 454.77 C 462.95 454.65 461.94 454.41 461.43 454.28 L 461.69 455.52 C 458.60 455.51 455.51 455.52 452.42 455.55 L 452.46 454.46 C 451.68 454.48 450.12 454.53 449.34 454.56 L 449.66 453.22 C 449.11 453.32 448.00 453.51 447.44 453.61 C 447.47 453.08 447.52 452.04 447.54 451.52 C 447.02 451.53 445.97 451.56 445.44 451.57 C 445.45 451.06 445.45 450.05 445.45 449.54 C 444.93 449.56 443.88 449.61 443.36 449.64 L 443.77 448.25 L 442.34 448.63 C 442.39 448.11 442.49 447.07 442.54 446.55 C 442.11 446.54 441.24 446.53 440.81 446.52 C 440.27 444.78 438.83 443.66 437.46 442.60 C 436.30 441.27 435.24 439.68 433.43 439.21 C 433.45 438.78 433.49 437.90 433.51 437.47 C 432.98 437.50 431.92 437.58 431.39 437.61 C 431.42 437.08 431.46 436.01 431.49 435.47 C 430.97 435.50 429.95 435.54 429.44 435.57 C 429.46 435.05 429.49 434.01 429.51 433.50 C 428.99 433.52 427.94 433.56 427.42 433.58 C 427.44 433.05 427.46 432.00 427.47 431.48 C 426.95 431.50 425.92 431.54 425.41 431.56 C 425.45 431.04 425.52 429.98 425.56 429.45 C 425.02 429.48 423.94 429.54 423.40 429.57 C 423.44 429.03 423.51 427.95 423.54 427.41 C 423.01 427.46 421.96 427.56 421.44 427.61 C 421.46 426.99 421.49 425.74 421.51 425.12 C 420.12 425.96 418.29 426.61 418.31 428.57 C 417.83 428.56 416.88 428.53 416.40 428.51 C 416.45 429.04 416.55 430.08 416.59 430.60 C 416.07 430.51 415.01 430.33 414.48 430.24 L 414.56 431.69 C 414.06 431.61 413.07 431.46 412.57 431.39 L 412.48 432.86 C 411.98 432.69 410.99 432.34 410.50 432.16 L 410.71 433.44 C 408.22 433.40 405.73 433.46 403.25 433.51 L 403.66 432.46 C 402.83 432.49 401.17 432.56 400.34 432.60 L 400.55 431.26 C 400.01 431.38 398.94 431.61 398.40 431.73 L 398.59 430.15 C 398.05 430.28 396.98 430.53 396.44 430.66 C 396.48 430.10 396.55 428.98 396.59 428.42 C 396.05 428.46 394.98 428.55 394.44 428.59 C 394.49 428.00 394.60 426.81 394.65 426.21 L 392.19 426.59 C 392.72 426.11 393.77 425.14 394.30 424.65 L 392.57 424.70 C 392.30 420.91 392.27 417.12 392.48 413.33 L 393.71 413.49 C 393.58 412.98 393.33 411.97 393.21 411.46 L 394.67 411.54 C 394.59 411.00 394.41 409.90 394.32 409.36 L 395.74 409.83 L 395.37 408.30 L 396.83 408.62 L 396.24 407.29 L 397.74 407.69 L 397.34 406.23 L 398.72 406.67 L 398.31 405.48 C 398.92 405.35 400.14 405.10 400.75 404.98 C 400.15 404.84 398.96 404.56 398.37 404.43 C 398.39 403.97 398.45 403.05 398.48 402.59 C 397.94 402.60 396.86 402.60 396.33 402.61 L 396.82 401.28 L 395.27 401.75 L 395.76 400.29 L 394.37 400.62 C 394.40 400.21 394.44 399.39 394.46 398.98 C 393.89 398.58 392.73 397.79 392.15 397.39 L 391.38 397.59 L 391.72 396.18 L 390.36 396.60 C 390.40 396.06 390.50 394.99 390.54 394.45 C 390.00 394.49 388.92 394.57 388.38 394.61 C 388.43 394.16 388.51 393.26 388.55 392.81 C 387.54 392.21 386.50 391.71 385.42 391.29 C 385.44 390.82 385.47 389.89 385.49 389.42 C 384.96 389.49 383.90 389.62 383.37 389.69 L 383.83 388.26 L 382.36 388.62 C 382.40 388.08 382.48 387.01 382.53 386.47 C 381.99 386.52 380.91 386.61 380.37 386.65 L 380.76 385.20 L 379.35 385.63 C 379.40 385.11 379.48 384.05 379.53 383.52 C 378.99 383.53 377.92 383.55 377.39 383.57 C 377.44 383.07 377.55 382.09 377.61 381.60 L 376.69 381.68 C 375.22 380.59 374.51 378.42 372.47 378.26 C 372.50 377.78 372.54 376.83 372.57 376.36 C 372.04 376.41 370.99 376.52 370.46 376.58 C 370.49 376.03 370.57 374.94 370.61 374.40 C 370.04 374.43 368.91 374.50 368.34 374.54 C 368.43 374.10 368.60 373.22 368.69 372.77 C 367.63 372.23 366.55 371.73 365.46 371.28 C 365.48 370.80 365.53 369.84 365.55 369.36 C 365.00 369.42 363.92 369.53 363.37 369.59 C 363.45 369.06 363.60 367.99 363.68 367.46 L 362.28 367.72 L 362.56 366.36 L 361.16 366.64 L 361.62 365.28 L 360.15 365.69 L 360.68 364.42 C 360.10 364.49 358.95 364.62 358.38 364.69 C 358.44 365.16 358.57 366.09 358.63 366.56 C 358.12 366.53 357.09 366.49 356.57 366.47 C 356.56 366.99 356.53 368.04 356.52 368.56 C 356.02 368.55 355.04 368.52 354.54 368.50 C 354.53 368.92 354.52 369.76 354.51 370.18 C 352.22 370.90 351.29 373.26 349.38 374.50 C 347.57 376.96 344.75 378.49 343.22 381.15 C 341.15 382.43 339.55 384.25 338.12 386.19 C 336.79 386.78 335.94 387.96 335.13 389.12 C 332.02 391.36 329.81 394.59 326.87 397.03 C 326.10 397.61 325.57 398.37 325.28 399.29 C 323.68 399.59 322.89 400.97 322.17 402.27 C 321.06 402.44 320.43 403.08 320.26 404.20 C 318.41 405.14 317.02 406.65 316.15 408.53 C 315.72 408.53 314.87 408.53 314.44 408.52 C 314.48 409.04 314.54 410.07 314.58 410.59 C 314.04 410.52 312.98 410.38 312.44 410.31 L 312.71 411.78 L 311.33 411.12 L 311.60 412.71 C 311.04 412.57 309.94 412.30 309.38 412.16 L 309.75 413.42 C 305.92 413.67 302.09 413.71 298.26 413.51 L 298.64 412.41 C 297.81 412.44 296.15 412.51 295.32 412.54 L 295.91 411.23 L 294.32 411.68 L 294.66 410.16 L 293.20 410.76 L 293.62 409.16 L 292.14 409.81 L 292.87 408.29 L 291.28 408.75 L 291.83 407.20 L 290.24 407.60 C 290.40 407.05 290.72 405.94 290.87 405.39 L 289.55 405.69 C 289.31 401.56 289.27 397.42 289.62 393.30 L 291.35 393.37 C 290.82 392.86 289.76 391.84 289.23 391.33 L 291.68 391.88 L 291.15 390.46 L 292.63 390.52 C 292.58 389.99 292.49 388.95 292.44 388.42 C 292.96 388.45 294.01 388.50 294.53 388.52 C 294.49 388.06 294.41 387.12 294.37 386.65 C 295.52 386.26 296.62 385.75 297.68 385.14 C 297.59 384.73 297.41 383.90 297.33 383.49 C 297.89 383.48 299.03 383.48 299.59 383.48 C 299.55 382.96 299.45 381.92 299.40 381.39 C 299.91 381.44 300.93 381.52 301.44 381.57 C 301.44 381.07 301.46 380.09 301.47 379.60 C 303.04 379.79 303.78 379.07 303.68 377.44 C 304.16 377.48 305.10 377.56 305.57 377.60 C 305.54 377.10 305.47 376.12 305.43 375.62 C 306.87 375.77 307.63 375.15 307.70 373.76 C 309.66 373.09 310.96 371.28 311.81 369.48 L 312.74 369.75 L 312.46 368.44 C 312.97 368.45 313.98 368.47 314.49 368.48 C 314.49 368.05 314.48 367.18 314.48 366.75 C 316.12 366.52 317.10 365.13 317.77 363.77 C 319.29 363.25 319.93 361.47 321.59 361.16 C 321.54 360.81 321.45 360.11 321.41 359.76 C 322.67 359.37 323.75 358.54 324.55 357.51 C 327.15 354.48 330.55 352.13 332.78 348.81 C 337.56 344.95 341.64 340.24 345.96 335.88 C 347.21 334.49 349.03 333.51 349.74 331.71 C 350.84 331.54 351.53 330.91 351.80 329.83 C 352.97 329.46 353.59 328.66 353.69 327.43 C 354.15 327.43 355.06 327.43 355.52 327.43 C 355.49 327.01 355.43 326.18 355.40 325.76 C 356.92 325.28 358.49 324.47 358.64 322.68 C 360.24 322.26 361.52 321.14 361.67 319.41 C 362.13 319.43 363.04 319.46 363.50 319.48 C 363.47 318.95 363.40 317.90 363.36 317.37 L 364.66 317.82 L 364.36 316.41 L 365.76 316.67 L 365.37 315.40 C 365.90 315.42 366.95 315.45 367.47 315.47 C 367.46 314.97 367.44 313.95 367.43 313.45 C 367.95 313.45 368.98 313.46 369.49 313.47 C 369.46 312.95 369.41 311.91 369.38 311.39 L 370.72 311.73 L 370.36 310.31 L 371.82 310.67 L 371.35 309.36 C 371.88 309.39 372.93 309.47 373.46 309.50 C 373.45 309.07 373.43 308.21 373.43 307.78 C 374.87 307.20 376.24 306.33 376.92 304.87 C 378.12 303.96 379.46 303.01 379.72 301.40 C 380.15 301.42 381.02 301.46 381.45 301.48 C 381.44 300.96 381.41 299.93 381.40 299.41 C 381.91 299.43 382.94 299.46 383.45 299.47 C 383.44 298.94 383.41 297.88 383.39 297.35 L 384.77 297.81 L 384.33 296.33 L 385.78 296.76 L 385.35 295.36 C 385.89 295.39 386.97 295.45 387.51 295.48 C 387.48 294.96 387.41 293.93 387.38 293.42 C 387.91 293.43 388.97 293.47 389.50 293.49 C 389.47 292.96 389.41 291.89 389.38 291.35 L 390.87 291.74 L 390.34 290.31 C 390.87 290.37 391.93 290.48 392.46 290.53 C 392.46 290.02 392.45 289.00 392.44 288.50 L 393.71 288.74 L 393.52 287.72 C 394.86 287.64 395.56 286.94 395.62 285.61 C 396.88 285.60 397.56 284.98 397.66 283.75 C 399.19 283.20 400.36 282.03 400.75 280.43 C 401.19 280.44 402.06 280.45 402.50 280.46 C 402.47 279.94 402.40 278.89 402.37 278.36 L 403.81 278.75 L 403.33 277.36 C 403.87 277.38 404.97 277.43 405.51 277.46 C 405.47 276.94 405.38 275.90 405.34 275.38 L 406.74 275.78 L 406.38 274.34 L 407.84 274.71 L 407.37 273.35 C 407.89 273.39 408.94 273.45 409.47 273.49 C 409.45 272.97 409.43 271.93 409.41 271.42 C 409.93 271.43 410.96 271.47 411.48 271.49 C 411.44 270.95 411.37 269.88 411.34 269.34 L 412.74 269.85 L 412.32 268.60 C 413.83 268.76 414.61 268.11 414.66 266.65 C 416.00 266.56 416.68 265.82 416.69 264.43 L 417.83 264.69 L 417.33 263.54 C 418.98 263.77 419.74 263.07 419.63 261.43 C 420.10 261.44 421.04 261.47 421.51 261.49 C 421.47 260.95 421.39 259.88 421.34 259.34 L 422.82 259.80 L 422.25 258.43 L 423.74 258.65 L 423.42 257.55 C 425.21 257.45 426.39 256.00 426.69 254.32 L 427.73 254.77 L 427.30 253.26 L 428.86 253.73 L 428.20 252.26 L 429.69 252.83 L 429.34 251.62 C 430.90 251.70 431.67 250.97 431.68 249.44 C 432.13 249.45 433.05 249.46 433.50 249.46 C 433.47 248.95 433.41 247.92 433.38 247.41 C 433.90 247.43 434.93 247.46 435.45 247.48 C 435.43 246.95 435.38 245.88 435.36 245.35 L 436.77 245.77 L 436.28 244.29 L 437.72 244.80 L 437.30 243.28 L 438.84 243.72 L 438.25 242.27 L 439.64 242.87 L 439.36 241.39 L 440.84 241.66 L 440.29 240.33 L 441.78 240.76 L 441.22 239.45 L 442.68 239.71 L 442.41 238.25 L 443.71 238.82 L 443.36 237.61 C 444.98 237.71 445.72 236.95 445.58 235.32 L 446.67 235.81 L 446.39 234.39 L 447.81 234.61 L 447.34 233.65 C 448.98 233.41 450.40 232.35 450.67 230.64 C 452.02 230.65 452.68 229.99 452.65 228.64 C 454.06 228.76 455.13 228.29 455.87 227.23 Z" />
<path fill="#e3e3e3" opacity="1.00" d=" M 409.71 600.47 L 409.26 599.56 C 419.07 599.68 428.89 599.70 438.70 599.55 L 438.33 600.44 C 440.07 600.45 441.84 600.50 443.60 600.48 L 443.27 601.74 L 444.65 601.28 L 444.61 602.63 C 445.10 602.53 446.08 602.32 446.57 602.22 L 446.35 603.58 L 447.69 603.26 L 447.55 604.63 C 448.07 604.58 449.11 604.48 449.63 604.43 C 449.53 604.96 449.33 606.01 449.22 606.54 L 450.72 606.45 C 450.60 606.96 450.35 607.99 450.22 608.51 L 451.41 608.31 C 451.90 612.76 451.86 617.25 451.39 621.71 L 450.50 621.31 C 450.13 622.45 449.77 623.60 449.43 624.76 L 448.42 624.24 L 448.65 625.63 L 447.30 625.42 L 447.62 626.69 C 447.11 626.64 446.09 626.54 445.58 626.49 C 445.58 626.98 445.56 627.97 445.55 628.46 C 444.76 628.48 443.19 628.52 442.40 628.54 L 442.67 629.52 C 429.90 629.89 417.11 629.77 404.34 629.47 L 404.56 628.15 C 404.02 628.32 402.94 628.67 402.40 628.85 L 402.84 627.21 L 401.41 627.92 L 401.61 626.44 L 400.23 626.64 L 400.42 625.31 C 399.98 625.41 399.10 625.61 398.66 625.70 C 398.39 624.24 398.74 621.93 396.45 622.42 C 396.49 621.64 396.56 620.08 396.60 619.30 L 395.50 619.75 C 395.50 616.59 395.53 613.43 395.54 610.28 L 396.79 610.52 C 396.66 610.12 396.40 609.33 396.27 608.93 C 396.94 607.93 397.69 607.04 398.53 606.27 L 398.26 605.35 L 399.60 605.41 C 399.52 604.96 399.36 604.06 399.29 603.62 C 400.43 603.29 401.55 602.90 402.65 602.44 L 402.45 601.21 C 402.95 601.36 403.95 601.65 404.46 601.80 L 404.31 600.51 C 406.10 600.46 407.91 600.43 409.71 600.47 Z" />
<path fill="#e3e3e3" opacity="1.00" d=" M 280.79 699.83 C 283.13 697.78 285.55 695.21 288.96 695.47 C 336.31 695.09 383.67 695.43 431.03 695.28 C 470.36 695.40 509.70 695.11 549.02 695.47 C 552.61 695.33 555.07 698.35 558.12 699.74 C 558.67 702.24 560.64 704.30 560.57 706.96 C 560.62 710.28 561.12 714.03 558.92 716.84 C 556.46 719.97 553.42 723.70 549.02 723.53 C 508.37 723.93 467.71 723.58 427.06 723.71 C 381.38 723.61 335.69 723.92 290.01 723.56 C 284.96 723.99 280.86 719.87 278.56 715.82 C 276.55 710.66 276.60 703.94 280.79 699.83 M 284.30 697.55 C 282.69 699.15 281.08 700.73 279.52 702.37 C 277.85 706.18 277.72 711.03 279.08 714.89 C 279.72 717.83 282.48 719.39 284.37 721.47 C 288.59 723.63 293.53 722.22 298.04 723.24 C 379.03 723.16 460.04 723.25 541.03 723.17 C 545.20 722.16 549.77 723.53 553.69 721.51 C 555.66 719.49 557.81 717.59 559.24 715.14 C 560.06 711.58 559.52 707.89 559.66 704.28 L 558.73 704.63 C 558.70 700.82 554.98 698.67 552.18 696.80 C 547.19 695.81 542.02 696.68 537.00 695.85 C 461.36 695.85 385.72 695.84 310.08 695.85 C 304.45 695.99 298.77 695.36 293.18 696.32 C 290.20 696.36 286.96 695.90 284.30 697.55 Z" />
</g>
</svg>
